<svg width="22" height="22" viewBox="0 0 22 22" fill="none" xmlns="http://www.w3.org/2000/svg">
<path d="M20.2308 15.6768V18.4268C20.2318 18.682 20.1795 18.9347 20.0772 19.1687C19.975 19.4026 19.825 19.6125 19.6368 19.7851C19.4487 19.9577 19.2266 20.0891 18.9848 20.1709C18.743 20.2527 18.4867 20.2831 18.2324 20.2601C15.4117 19.9536 12.7022 18.9897 10.3216 17.4459C8.10678 16.0385 6.229 14.1607 4.82161 11.9459C3.27242 9.55453 2.30833 6.83183 2.00744 3.99842C1.98453 3.74493 2.01466 3.48945 2.0959 3.24824C2.17714 3.00704 2.30771 2.78539 2.47931 2.59741C2.6509 2.40943 2.85976 2.25924 3.09258 2.1564C3.3254 2.05356 3.57709 2.00033 3.83161 2.00009H6.58161C7.02647 1.99571 7.45775 2.15324 7.79505 2.44333C8.13236 2.73341 8.35268 3.13625 8.41494 3.57676C8.53101 4.45682 8.74627 5.32092 9.05661 6.15259C9.17994 6.48069 9.20663 6.83726 9.13352 7.18006C9.06041 7.52286 8.89056 7.83752 8.64411 8.08676L7.47994 9.25092C8.78487 11.5458 10.685 13.446 12.9799 14.7509L14.1441 13.5868C14.3933 13.3403 14.708 13.1704 15.0508 13.0973C15.3936 13.0242 15.7502 13.0509 16.0783 13.1743C16.9099 13.4846 17.774 13.6999 18.6541 13.8159C19.0994 13.8787 19.5061 14.103 19.7968 14.4461C20.0875 14.7892 20.2419 15.2272 20.2308 15.6768Z" stroke="#787878" stroke-width="2" stroke-linecap="round" stroke-linejoin="round"/>
</svg>
