<svg width="35" height="35" viewBox="0 0 35 35" fill="none" xmlns="http://www.w3.org/2000/svg">
<g clip-path="url(#clip0)">
<path d="M33.5417 10.2083V1.45833H24.7917" stroke="#4990E3" stroke-width="3" stroke-linecap="round" stroke-linejoin="round"/>
<path d="M23.3333 11.6667L33.5417 1.45833" stroke="#3D88E2" stroke-width="2" stroke-linecap="round" stroke-linejoin="round"/>
<path d="M32.0833 24.675V29.05C32.085 29.4562 32.0018 29.8582 31.8391 30.2303C31.6764 30.6025 31.4377 30.9365 31.1384 31.2111C30.8392 31.4857 30.4858 31.6947 30.1011 31.8248C29.7163 31.9549 29.3087 32.0033 28.9042 31.9667C24.4166 31.4791 20.106 29.9457 16.3187 27.4896C12.7952 25.2506 9.80778 22.2632 7.56875 18.7396C5.10413 14.9351 3.57035 10.6036 3.09166 6.09587C3.05522 5.6926 3.10315 5.28615 3.23239 4.90241C3.36164 4.51867 3.56937 4.16604 3.84236 3.86699C4.11536 3.56793 4.44763 3.32899 4.81803 3.16538C5.18842 3.00178 5.58883 2.91709 5.99375 2.91671H10.3687C11.0765 2.90974 11.7626 3.16036 12.2992 3.62186C12.8359 4.08335 13.1864 4.72423 13.2854 5.42504C13.4701 6.82514 13.8125 8.19985 14.3062 9.52296C14.5025 10.0449 14.5449 10.6122 14.4286 11.1576C14.3123 11.7029 14.0421 12.2035 13.65 12.6L11.7979 14.4521C13.8739 18.1031 16.8969 21.1261 20.5479 23.2021L22.4 21.35C22.7965 20.9579 23.2971 20.6877 23.8425 20.5714C24.3878 20.4551 24.9551 20.4976 25.4771 20.6938C26.8002 21.1875 28.1749 21.53 29.575 21.7146C30.2834 21.8146 30.9304 22.1714 31.3929 22.7172C31.8553 23.2631 32.1011 23.9598 32.0833 24.675Z" stroke="#3D88E2" stroke-width="2" stroke-linecap="round" stroke-linejoin="round"/>
</g>
<defs>
<clipPath id="clip0">
<rect width="35" height="35" fill="white"/>
</clipPath>
</defs>
</svg>
